<svg width="150" height="28" viewBox="0 0 150 28" fill="none" xmlns="http://www.w3.org/2000/svg">
<path d="M139.478 16.317C140.795 14.9524 142.415 14.2701 144.338 14.2701C145.816 14.2701 147.027 14.6562 147.97 15.4282C148.914 16.2003 149.502 17.1878 149.733 18.3907C149.751 18.4625 149.76 18.5344 149.76 18.6062C149.76 19.0191 149.546 19.3064 149.119 19.468C147.16 20.2939 144.41 21.3353 140.866 22.5921C141.169 23.4 141.677 24.0913 142.389 24.6658C143.119 25.2404 144.009 25.5277 145.059 25.5277C146.573 25.5277 147.926 24.9082 149.119 23.6694C149.279 23.5078 149.43 23.427 149.573 23.427C149.644 23.427 149.733 23.4629 149.84 23.5347C149.947 23.6065 150 23.7322 150 23.9117C150 24.0015 149.973 24.1182 149.92 24.2619C149.599 25.1057 148.887 25.8957 147.783 26.6319C146.697 27.368 145.371 27.7361 143.804 27.7361C141.935 27.7361 140.412 27.1436 139.237 25.9586C138.08 24.7736 137.501 23.2654 137.501 21.434C137.501 19.4051 138.16 17.6995 139.478 16.317ZM140.546 21.2455C142.861 20.4734 144.65 19.8271 145.914 19.3064C146.306 19.1628 146.502 18.9114 146.502 18.5523C146.502 18.4805 146.493 18.3997 146.475 18.3099C146.315 17.5199 145.95 16.9005 145.38 16.4516C144.81 15.9848 144.223 15.7514 143.617 15.7514C143.528 15.7514 143.439 15.7604 143.35 15.7783C142.407 15.8322 141.668 16.2362 141.134 16.9903C140.617 17.7264 140.359 18.5882 140.359 19.5757C140.359 20.2939 140.421 20.8505 140.546 21.2455Z" fill="#758FEB"/>
<path d="M112.501 26.2818C112.626 26.1381 112.768 26.0124 112.928 25.9047C113.106 25.797 113.258 25.5725 113.382 25.2314C113.525 24.8723 113.596 24.4055 113.596 23.831V18.5523C113.596 17.6905 113.32 17.08 112.768 16.7209C112.448 16.4875 112.287 16.2541 112.287 16.0207C112.287 15.8412 112.341 15.6975 112.448 15.5898C112.554 15.4641 112.768 15.3295 113.089 15.1858C114.281 14.6472 115.163 14.3599 115.732 14.324C116.106 14.324 116.293 14.5574 116.293 15.0242L116.267 17.098C117.335 15.2128 118.875 14.2701 120.887 14.2701C123.041 14.2701 124.448 15.2217 125.106 17.1249C125.605 16.1913 126.255 15.4821 127.056 14.9973C127.857 14.5125 128.73 14.2701 129.673 14.2701C131.08 14.2701 132.121 14.7011 132.798 15.5629C133.492 16.4247 134.017 17.8611 134.373 19.872L135.255 24.5312C135.344 24.998 135.504 25.3661 135.736 25.6354C135.985 25.9047 136.198 26.1202 136.376 26.2818C136.572 26.4433 136.67 26.6408 136.67 26.8743C136.67 27.2693 136.296 27.4668 135.549 27.4668H132.264C131.516 27.4668 131.142 27.2603 131.142 26.8473C131.142 26.6319 131.249 26.4433 131.463 26.2818C131.694 26.1022 131.881 25.8957 132.023 25.6623C132.184 25.411 132.264 25.1416 132.264 24.8544C132.264 24.7107 132.246 24.5581 132.21 24.3965L131.409 20.0336C131.32 19.5129 131.249 19.1269 131.195 18.8755C131.142 18.6241 131.044 18.3009 130.902 17.9059C130.759 17.493 130.599 17.1967 130.421 17.0172C130.243 16.8197 130.003 16.6491 129.7 16.5055C129.397 16.3439 129.041 16.2631 128.632 16.2631C127.813 16.2811 127.092 16.6401 126.468 17.3404C125.863 18.0406 125.543 19.0281 125.507 20.3029L125.534 23.831C125.534 24.4055 125.596 24.8723 125.721 25.2314C125.863 25.5725 126.006 25.797 126.148 25.9047C126.308 26.0124 126.451 26.1471 126.575 26.3087C126.718 26.4703 126.789 26.6588 126.789 26.8743C126.789 27.2693 126.424 27.4668 125.694 27.4668H122.356C121.59 27.4668 121.207 27.2603 121.207 26.8473C121.207 26.6319 121.27 26.4523 121.394 26.3087C121.537 26.1471 121.688 26.0124 121.848 25.9047C122.026 25.797 122.178 25.5725 122.302 25.2314C122.445 24.8723 122.516 24.4055 122.516 23.831V20.1952C122.516 18.9383 122.329 17.9598 121.955 17.2596C121.581 16.5593 120.922 16.2092 119.979 16.2092C119.943 16.2092 119.916 16.2092 119.899 16.2092C119.008 16.2092 118.234 16.5953 117.575 17.3673C116.934 18.1214 116.614 19.1717 116.614 20.5183V23.831C116.614 24.4055 116.676 24.8723 116.801 25.2314C116.943 25.5725 117.086 25.797 117.228 25.9047C117.388 26.0124 117.531 26.1471 117.655 26.3087C117.798 26.4703 117.869 26.6588 117.869 26.8743C117.869 27.2693 117.504 27.4668 116.774 27.4668H113.409C112.661 27.4668 112.287 27.2603 112.287 26.8473C112.287 26.6319 112.359 26.4433 112.501 26.2818Z" fill="#758FEB"/>
<path d="M98.8464 16.3439C100.2 14.9614 101.918 14.2701 104.001 14.2701C105.781 14.2701 107.25 14.8806 108.407 16.1015C109.582 17.3224 110.17 18.8396 110.17 20.653C110.17 22.6819 109.502 24.3696 108.167 25.7162C106.832 27.0628 105.131 27.7361 103.066 27.7361C101.25 27.7361 99.7455 27.1705 98.5527 26.0394C97.3776 24.8903 96.79 23.3731 96.79 21.4879C96.79 19.4411 97.4755 17.7264 98.8464 16.3439ZM101.01 24.3696C101.811 25.5905 102.826 26.201 104.054 26.201C105.051 26.201 105.826 25.8329 106.378 25.0967C106.93 24.3606 107.206 23.409 107.206 22.242C107.206 20.5722 106.796 19.0909 105.977 17.7982C105.158 16.4875 104.143 15.8322 102.932 15.8322C101.918 15.8322 101.134 16.2272 100.582 17.0172C100.048 17.8072 99.7811 18.7947 99.7811 19.9797C99.7811 21.6854 100.191 23.1487 101.01 24.3696Z" fill="#758FEB"/>
<path d="M76.4026 26.2009C76.5806 26.0394 76.7675 25.9047 76.9634 25.797C77.177 25.6892 77.3729 25.4199 77.5509 24.989C77.729 24.5581 77.818 23.9836 77.818 23.2654V12.8158C77.818 12.0976 77.729 11.5231 77.5509 11.0922C77.3907 10.6613 77.2038 10.3919 76.9901 10.2842C76.7943 10.1765 76.6073 10.0418 76.4293 9.88024C76.269 9.71865 76.1889 9.51217 76.1889 9.26081C76.1889 9.0274 76.2957 8.86581 76.5094 8.77603C76.723 8.66831 77.088 8.61444 77.6043 8.61444H81.183C82.1266 8.61444 82.5984 8.8299 82.5984 9.26081C82.5984 9.51217 82.5094 9.71865 82.3314 9.88024C82.1533 10.0418 81.9575 10.1765 81.7438 10.2842C81.548 10.3919 81.361 10.6613 81.183 11.0922C81.005 11.5231 80.9159 12.0976 80.9159 12.8158V15.509C80.9159 16.0117 81.005 16.317 81.183 16.4247C81.4679 16.6222 82.634 16.7209 84.6815 16.7209H85.8032C88.278 16.7209 89.6845 16.6491 90.0228 16.5055C90.2899 16.2721 90.4234 15.9399 90.4234 15.509V12.8158C90.4234 12.0976 90.3344 11.5231 90.1563 11.0922C89.9961 10.6613 89.818 10.3919 89.6222 10.2842C89.4263 10.1765 89.2394 10.0418 89.0614 9.88024C88.9011 9.71865 88.821 9.51217 88.821 9.26081C88.821 9.0274 88.9189 8.86581 89.1148 8.77603C89.3284 8.66831 89.6934 8.61444 90.2097 8.61444H93.8151C94.7409 8.61444 95.2038 8.8299 95.2038 9.26081C95.2038 9.45831 95.1415 9.62888 95.0169 9.77251C94.9101 9.89819 94.7765 10.0149 94.6163 10.1226C94.456 10.2304 94.2958 10.365 94.1356 10.5266C93.9753 10.6882 93.8329 10.9665 93.7083 11.3615C93.6014 11.7385 93.548 12.2233 93.548 12.8158V23.2654C93.548 23.9836 93.6281 24.5581 93.7884 24.989C93.9664 25.4199 94.1534 25.6892 94.3492 25.797C94.5451 25.9047 94.7231 26.0394 94.8833 26.2009C95.0614 26.3625 95.1504 26.569 95.1504 26.8204C95.1504 27.0538 95.0436 27.2244 94.8299 27.3321C94.6341 27.4219 94.278 27.4667 93.7617 27.4667H90.1563C89.2305 27.4667 88.7676 27.2513 88.7676 26.8204C88.7676 26.6229 88.821 26.4613 88.9278 26.3356C89.0525 26.192 89.1949 26.0663 89.3551 25.9586C89.5154 25.8508 89.6756 25.7162 89.8358 25.5546C89.9961 25.393 90.1296 25.1237 90.2364 24.7466C90.3611 24.3516 90.4234 23.8579 90.4234 23.2654V19.4141C90.4234 18.9114 90.3344 18.5972 90.1563 18.4715C89.8715 18.292 88.7142 18.2022 86.6845 18.2022H85.7765C83.1771 18.2022 81.6993 18.274 81.3432 18.4176C81.0762 18.687 80.9337 19.0191 80.9159 19.4141V23.2654C80.9159 23.9836 80.9961 24.5581 81.1563 24.989C81.3343 25.4199 81.5213 25.6892 81.7171 25.797C81.9308 25.9047 82.1177 26.0394 82.278 26.2009C82.456 26.3625 82.545 26.569 82.545 26.8204C82.545 27.0538 82.4382 27.2244 82.2245 27.3321C82.0109 27.4219 81.6459 27.4667 81.1296 27.4667H77.5509C76.6073 27.4667 76.1355 27.2513 76.1355 26.8204C76.1355 26.569 76.2245 26.3625 76.4026 26.2009Z" fill="#758FEB"/>
<path d="M65.6909 15.4013C65.6909 15.1319 65.7977 14.8806 66.0114 14.6472C66.9372 13.6417 67.9788 12.744 69.136 11.954C69.4565 11.7385 69.7414 11.6308 69.9906 11.6308C70.3111 11.6308 70.4714 11.8193 70.4714 12.1964C70.4714 12.2502 70.4714 12.2951 70.4714 12.331C70.4357 12.8517 70.4001 13.5878 70.3645 14.5394H73.0352C73.2132 14.5394 73.3556 14.5574 73.4625 14.5933C73.5693 14.6113 73.6494 14.6741 73.7028 14.7818C73.7562 14.8716 73.7829 14.9793 73.7829 15.105C73.7829 15.1768 73.774 15.2576 73.7562 15.3474C73.6494 15.886 73.32 16.1553 72.7681 16.1553C72.7325 16.1553 72.6969 16.1553 72.6613 16.1553L70.3378 16.0746C70.3378 16.4516 70.3289 17.3493 70.3111 18.7677C70.2933 20.1862 70.2755 21.4609 70.2577 22.5921C70.2577 22.6639 70.2577 22.7357 70.2577 22.8075C70.2577 23.7771 70.3645 24.4773 70.5782 24.9082C70.8096 25.3391 71.2547 25.5546 71.9135 25.5546C72.5723 25.5546 73.231 25.2763 73.8898 24.7197C74.0144 24.612 74.139 24.5581 74.2637 24.5581C74.3349 24.5581 74.415 24.594 74.504 24.6658C74.6108 24.7376 74.6643 24.8454 74.6643 24.989C74.6643 25.0608 74.6464 25.1416 74.6108 25.2314C74.3616 25.8598 73.8987 26.4343 73.2221 26.955C72.5634 27.4757 71.7533 27.736 70.7918 27.736C69.6524 27.736 68.78 27.3949 68.1746 26.7126C67.5871 26.0124 67.2933 25.007 67.2933 23.6963V22.5921C67.2933 19.5577 67.3289 17.3583 67.4001 15.9938H66.5188C65.9669 15.9938 65.6909 15.7963 65.6909 15.4013Z" fill="#758FEB"/>
<path d="M53.9863 16.317C55.3038 14.9524 56.924 14.2701 58.8468 14.2701C60.3246 14.2701 61.5353 14.6562 62.4789 15.4282C63.4225 16.2003 64.0101 17.1878 64.2415 18.3907C64.2593 18.4625 64.2682 18.5344 64.2682 18.6062C64.2682 19.0191 64.0546 19.3064 63.6273 19.468C61.6688 20.2939 58.918 21.3353 55.375 22.5921C55.6777 23.4 56.1851 24.0913 56.8973 24.6658C57.6272 25.2404 58.5175 25.5277 59.5679 25.5277C61.0813 25.5277 62.4344 24.9082 63.6273 23.6694C63.7875 23.5078 63.9388 23.427 64.0813 23.427C64.1525 23.427 64.2415 23.4629 64.3483 23.5347C64.4552 23.6065 64.5086 23.7322 64.5086 23.9117C64.5086 24.0015 64.4819 24.1182 64.4285 24.2619C64.108 25.1057 63.3958 25.8957 62.2919 26.6319C61.2059 27.368 59.8795 27.7361 58.3127 27.7361C56.4433 27.7361 54.921 27.1436 53.7459 25.9586C52.5886 24.7736 52.01 23.2654 52.01 21.434C52.01 19.4051 52.6688 17.6995 53.9863 16.317ZM55.0545 21.2455C57.3691 20.4734 59.1584 19.8271 60.4225 19.3064C60.8142 19.1628 61.01 18.9114 61.01 18.5523C61.01 18.4805 61.0011 18.3997 60.9833 18.3099C60.8231 17.5199 60.4581 16.9005 59.8884 16.4516C59.3186 15.9848 58.7311 15.7514 58.1258 15.7514C58.0367 15.7514 57.9477 15.7604 57.8587 15.7783C56.9151 15.8322 56.1762 16.2362 55.6421 16.9903C55.1257 17.7264 54.8676 18.5882 54.8676 19.5757C54.8676 20.2939 54.9299 20.8505 55.0545 21.2455Z" fill="#758FEB"/>
<path d="M35.5619 8.7491C35.7756 8.65933 36.1406 8.61444 36.6569 8.61444H41.918C44.6955 8.61444 46.8676 9.25183 48.4344 10.5266C50.0012 11.8014 50.7845 13.4442 50.7845 15.4551C50.7845 17.4481 50.0991 18.9742 48.7282 20.0335C47.3572 21.0749 45.3365 21.5956 42.6658 21.5956H40.556C40.3246 21.5956 40.1732 21.6225 40.102 21.6764C40.0486 21.7303 40.0219 21.8829 40.0219 22.1342V23.2654C40.0219 23.9836 40.102 24.5581 40.2622 24.989C40.4403 25.4199 40.6272 25.6892 40.8231 25.797C41.0367 25.9047 41.2237 26.0394 41.3839 26.2009C41.562 26.3625 41.651 26.569 41.651 26.8204C41.651 27.0538 41.5442 27.2244 41.3305 27.3321C41.1169 27.4219 40.7519 27.4667 40.2355 27.4667H36.6569C35.7133 27.4667 35.2415 27.2513 35.2415 26.8204C35.2415 26.569 35.3305 26.3625 35.5085 26.2009C35.6866 26.0394 35.8735 25.9047 36.0694 25.797C36.283 25.6892 36.4788 25.4199 36.6569 24.989C36.8349 24.5581 36.924 23.9836 36.924 23.2654V12.735C36.924 12.1425 36.8616 11.6577 36.737 11.2807C36.6302 10.8857 36.4967 10.6164 36.3364 10.4727C36.1762 10.3111 36.007 10.1855 35.829 10.0957C35.6688 10.0059 35.5263 9.89819 35.4017 9.77251C35.2949 9.64683 35.2415 9.47626 35.2415 9.26081C35.2415 9.00944 35.3483 8.83887 35.5619 8.7491ZM40.5293 20.0066C40.8498 20.1323 41.5174 20.1951 42.5323 20.1951C45.8617 20.1951 47.5264 18.7678 47.5264 15.913C47.5264 14.1534 46.9922 12.735 45.924 11.6577C44.8557 10.5625 43.5026 10.0149 41.8646 10.0149C41.0634 10.0149 40.556 10.0688 40.3424 10.1765C40.1287 10.2663 40.0219 10.4548 40.0219 10.7421V19.3603C40.0219 19.6655 40.191 19.8809 40.5293 20.0066Z" fill="#758FEB"/>
<path d="M26.698 10.4061C26.7129 8.78832 26.0353 7.63484 24.7136 6.76513C21.6924 4.77879 18.6712 2.78877 15.6686 0.780318C14.0692 -0.292083 12.5401 -0.244175 10.948 0.831911C7.95281 2.8551 4.93536 4.84881 1.9105 6.83146C0.633173 7.66801 -0.00734132 8.78832 6.34717e-05 10.3251C0.0185755 14.9169 -0.0110437 19.5123 0.0148731 24.1041C0.0296826 26.6432 1.36255 27.9589 3.9209 27.9847C7.01981 28.0142 10.1187 27.992 13.2176 27.992C16.3758 27.992 19.5339 28.0105 22.6883 27.9847C25.3615 27.9626 26.6647 26.669 26.6758 24.0083C26.698 19.4755 26.6573 14.939 26.6943 10.4061H26.698ZM16.0314 7.33634C17.3125 7.32528 18.3825 8.79937 18.3862 10.5793C18.3899 12.3556 17.3347 13.8408 16.0611 13.8518C14.78 13.8629 13.7137 12.3925 13.7063 10.6088C13.6989 8.83254 14.7541 7.35108 16.0314 7.33634ZM10.4519 7.33634C11.7293 7.36582 12.7733 8.85097 12.7585 10.6272C12.7437 12.4109 11.6626 13.8776 10.3816 13.8481C9.13758 13.8223 8.10461 12.3962 8.07869 10.6715C8.04907 8.83623 9.13758 7.30686 10.4556 7.33634H10.4519ZM3.38035 15.2227C3.39516 13.4354 4.47996 11.976 5.76469 12.0092C7.0087 12.0424 8.03797 13.4686 8.06388 15.1932C8.0935 17.0248 6.99389 18.5579 5.67954 18.5247C4.40591 18.4915 3.36924 16.999 3.38405 15.2227H3.38035ZM20.1189 22.7885C19.6635 24.2184 18.4454 25.0881 16.9126 25.1655C16.0944 24.9259 15.291 24.5906 14.4579 24.4726C13.6508 24.3547 12.7992 24.3842 11.9847 24.4874C11.185 24.5906 10.4149 24.9775 9.61519 25.0439C8.04907 25.1692 6.82358 24.2515 6.35708 22.7627C5.90168 21.3034 6.31635 19.914 7.71215 19.1585C9.06353 18.4252 10.0299 17.4265 10.8814 16.1772C12.1809 14.2683 14.2876 14.2793 15.5909 16.2177C16.4572 17.5076 17.3939 18.5652 18.8267 19.2765C20.1337 19.9251 20.5595 21.4102 20.1189 22.7959V22.7885ZM20.7187 18.521C19.4413 18.5026 18.3936 17.0174 18.401 15.2412C18.4084 13.4575 19.4821 11.9908 20.7631 12.0092C22.0404 12.0276 23.0919 13.5091 23.0808 15.2891C23.0734 17.069 21.996 18.5431 20.715 18.5247L20.7187 18.521Z" fill="#E5D0FF"/>
</svg>
